<?xml version="1.0" encoding="UTF-8"?>
<svg id="Layer_1" data-name="Layer 1" xmlns="http://www.w3.org/2000/svg" width="1262.7" height="570.3" version="1.1" viewBox="0 0 1262.7 570.3">
  <defs>
    <style>
      .cls-1 {
        fill: #e7e8ee;
      }

      .cls-1, .cls-2, .cls-3, .cls-4, .cls-5, .cls-6, .cls-7, .cls-8, .cls-9, .cls-10, .cls-11, .cls-12, .cls-13, .cls-14, .cls-15 {
        stroke-width: 0px;
      }

      .cls-2 {
        fill: #323277;
      }

      .cls-3 {
        fill: #3c3c7d;
      }

      .cls-4 {
        fill: #302f75;
      }

      .cls-5 {
        fill: #e5061a;
      }

      .cls-6 {
        fill: #f4f5f7;
      }

      .cls-7 {
        fill: #2f2f74;
      }

      .cls-8 {
        fill: #e6091c;
      }

      .cls-9 {
        fill: #eaebf0;
      }

      .cls-10 {
        fill: #e6071a;
      }

      .cls-11 {
        fill: #3d3d7d;
      }

      .cls-12 {
        fill: #3e3e7e;
      }

      .cls-13 {
        fill: #4865a5;
      }

      .cls-14 {
        fill: #fefefe;
      }

      .cls-15 {
        fill: #3b3b7c;
      }
    </style>
  </defs>
  <path class="cls-14" d="M829.1,570.1H0V0h1262.7v570.3h-433.8M554.3,256c-9.3,38.7.8,62.1,32.7,75.4,12.1,4.9,24.3,8.6,36.6,13.8,10.5,4.3,12.9,12.9,7.4,24.7-6.2,13.2-21.4,20.1-37.4,17.1-13.6-2.3-18.9-12.5-20.6-27.8-.6-3.9-5.5-10.5-8.2-10.5-10.5,0-20.6,2.3-30.8,3.7-4.5,35.8,4.9,62.7,26.9,72.6,28.8,12.9,57.8,11.1,84.3-9.2,22.8-17.3,32.7-44.4,29.6-76.3-2.7-30.2-22.8-39.7-43.6-47.3-10.5-3.7-21.4-6.8-31-12.5-3.9-2.3-8-12.1-6.8-16.2,4.9-13.4,16.6-13.8,27.3-14.2,9.2,0,19.5,1.4,20.6,14.2,1.4,17.1,9.3,16.7,19.9,15.2,7.2-1,14.2-1,21.2-1.6,6.2-38.2-7.2-62.7-37.4-69.7-39.5-9.2-68.5,5.8-91.3,43.4,1.2-8.2,1.9-16.4,3.5-24.3,3.3-14.2-.8-18.1-12.9-18.1-33.7.6-67.8,0-101.6.4-28.8,0-21.2-5.6-27.6,27.6-2.5,11.9,0,17.3,11.3,16.7,11.5-1,23.4,0,35.6,0-.8,6.2-1.2,10.1-1.6,13.8-7.4,48.3-15.2,97-22.6,145.3-1.2,6.6-4.1,15.4,5.8,15.8,10.7.6,21.6,0,32.3,0,1.2-5.6,1.9-9.2,2.5-13.2,7.4-49.1,15.4-97.9,22.2-147,1.6-11.1,4.7-16.2,14.8-15.2,13.2,1.4,26.3.4,39.3,3.3M184.8,454.1c-7.4,13.4-14.8,26.9-23.6,43,24.1,0,45.4-.6,66.8,0,8,0,12.3-3.3,16.6-10.9,74.2-133.8,148.2-266.9,222.6-400.7,1.9-3.3,3.1-6.8,5.3-11.5-22,0-42.3.6-62.3,0-9.9-.4-15.6,3.3-21.2,13.2-67.2,121.9-135.1,243.6-204.1,367M801,261.3c-1.2,7.6-1.9,15.4-3.9,22.4-1.2,3.7-4.9,8.2-7.6,8.2-16.7.6-33.5.4-52.2.4,3.5-24.3,6.6-46.9,10.5-68.9,1.6-10.1,0-14.4-9.2-14.2-9.5.4-18.9,0-29,0-1.4,6.6-2.5,11.5-3.3,16.7-8.6,53.9-16.7,107.5-24.9,161.4-6.6,42.6-6.6,43,30.2,40.7,1.4,0,2.7-.6,4.9-1.4,3.9-25.7,7.4-51.2,12.1-76.9.8-4.9,5.5-12.5,8.6-12.9,16.7-1.4,33.7-.6,51.8-.6-2.5,17.3-4.7,32.9-7.2,48.3-4.7,30.2,5.6,44.8,31.3,43.4.8,0,1.6-1,3.3-1.9,10.5-68,21.2-136.7,31-205.8.6-2.9-4.9-10.1-8-10.5-30.4-4.7-30.4-4.3-35.6,31.2-.8,5.8-1.9,11.9-3.3,20.4M154,450.2c7.6-27.3-3.1-45.4-27.3-45.8H43.2c-17.5,0-29.4,12.1-30,30.2-.6,18.5,11.5,31.5,30,31.9,27.6,0,55.7,1.4,83.5-.6,8.8-.6,17.3-9,27.3-15.8M185.2,322.6c-31.9-.6-63.7-1.4-95.8-1.6-17.9,0-29,12.1-29.4,30.6-.2,19.1,11.3,31.5,30,31.5h83.5c16,0,26.3-8.6,29-23.4,3.1-16.7-2.7-28.6-17.3-37.2M222.7,300.6c17.3-2.7,27.5-15.2,26.7-32.1-.8-17.3-12.1-29.6-28.8-29.6h-84.9c-18.1,0-30.4,13.4-30.2,31.5.2,17.7,12.3,30.2,30,30.2h87.2M310.8,136.1c19.5-1.4,30.4-12.5,30.2-31.2-.2-18.7-11.9-30.6-31-30.6h-82.4c-18.7,0-30.2,12.5-30.2,31.5s11.5,30.2,29.6,30.2h83.5M229.4,218.5c13.2,0,26.7.4,39.7,0,14.8-.6,25.5-13.2,26.1-29.6.6-16.7-10.5-31.5-25.5-32.1-28.8-.6-57.6-.6-86.3,0-15.4.4-26.3,14.4-26.3,31.2s11.5,30,26.9,30.2c14.2.4,28.2,0,45.4,0M918.8,389.4c0,15.8-10.7,17.3-19.3,17.1-7.2,0-16.7-4.7-20.6-10.9-8-13.2,1.4-41.1,14.6-49.7,13.4-9,23.6-4.3,34.7,16.2,3.1-3.7,8.6-9,8.2-9.9-3.5-7.6-7.2-17.1-13.2-21-15.2-9.9-38.7-.6-50,17.7-12.3,20.1-14,46.9-3.9,61.1s30.4,15.8,49.7,5.6c16.6-9,12.3-26.7,16-41.5-27.3-5.8-35-2.9-33.5,12.1,5.3.4,10.7.6,17.5,3.3M988.5,328.9c-8.2,0-16.6-.6-24.7,0-3.1,0-7.6,2.9-8.2,5.6-4.9,27.8-9.3,56.3-14,84.5,1.6,1.4,3.1,2.7,4.7,3.7,3.3-3.9,7.4-7.2,9.5-11.5,1.9-3.9,1.2-9.9,2.7-14.2,1.9-5.3,5.5-14.2,7.6-13.8,6,1,12.3,4.7,16.7,9.2,3.9,3.9,5.5,11.1,7.2,17.3,3.5,12.1,9.5,13.8,19.5,8.2-4.9-13.2-9.9-25.3-14.6-37.4,15.6-11.1,21.4-22.6,18.3-36.2-3.3-14.2-13.2-15.2-25.3-15.4M1032,414.3c16.9,11.9,35,9.9,49.1-5.3,14-15.4,21.6-44.4,12.9-61.1-4.7-9-14.6-17.3-23-19.5-18.3-4.3-32.9,6.8-42.1,26.3-8.8,19.1-12.3,39.1,2.7,59.6M1173.5,351.3c1.2-6.8,1.9-13.4,2.7-20.1-9.9-5.3-13.2-1.4-14.6,8.6-2.7,17.1-5.3,34.5-9.2,51.2-3.1,13.4-14.2,19.7-24.9,15.4-11.5-4.3-8.6-15.2-7.2-24.7,2.5-17.1,5.3-34.3,8-51-1.2-1.4-2.1-2.3-3.1-3.7-3.5,2.3-9.9,4.3-10.5,7.2-3.9,21.4-7.4,43-8.6,64.8-.2,6.6,6.8,17.1,12.7,20.1,19.5,10.1,40.9-2.9,46.7-27.3,3.1-12.5,4.7-25.7,7.4-41.1M1189.9,346c-3.9,24.3-8,49.1-11.9,73.2,6.4,1,13.2-10.3,20.2-33.9h14.2c4.9,0,10.1-.4,14.8-1.9,12.3-3.9,23-21,21.2-34.3-2.5-17.3-13.4-20.1-25.9-20.1s-12.9.6-19.3-.4c-9.5-1.6-13.2,3.9-14.2,17.1h.6l.2.2Z"/>
  <path class="cls-13" d="M185.4,453.1c68.1-122.7,135.9-244.2,203.5-366.1,5.5-9.9,11.3-13.8,21.2-13.2,20.1,1,40.1,0,62.3,0-2.1,4.9-3.5,8.6-5.3,11.5-74.2,133.4-148.6,266.9-222.6,400.7-4.1,7.6-8.6,11.1-16.6,10.9-21.4-.6-42.6,0-66.8,0,8.8-16.2,16.2-29.6,24.1-44v.4-.2Z"/>
  <path class="cls-4" d="M801,259.9c1.2-7.2,2.1-13.2,3.1-19.1,3.5-23.6,15.4-34,35.6-31.2,3.1.4,8.2,7.6,8,10.5-10.1,68.9-20.6,137.7-31,205.8-1.9,1.4-2.5,1.9-3.3,1.9-25.7,1.4-36-13.2-31.3-43.4,2.5-15.4,4.7-31,7.2-48.3-18.3,0-35-.6-51.8.6-3.3,0-7.6,8-8.6,12.9-4.7,25.7-8.2,51.6-12.1,76.9-2.1.6-3.5,1.4-4.9,1.4-36.6,2.3-36.8,2.3-30.2-40.7,8.2-53.9,16.7-107.5,24.9-161.4.8-5.3,1.9-10.5,3.3-16.7h29c9.2,0,10.7,4.3,9.2,14.2-3.9,22.4-6.8,44.8-10.5,68.9,18.7,0,35.4.4,52.2-.4,2.7,0,6.6-4.9,7.6-8.2,2.1-7.2,2.7-14.8,4.1-23.9l-.6.4v-.2Z"/>
  <path class="cls-7" d="M554.3,253.9c21.4-40.5,50.4-55.5,90-46.3,30.2,6.8,43.6,31.5,37.4,69.7-6.8.4-14,.6-21.2,1.6-10.1,1.6-18.3,1.9-19.9-15.2-1.2-12.9-11.5-14.2-20.6-14.2s-22.2.6-27.3,14.2c-1.4,3.7,3.1,13.8,6.8,16.2,9.9,5.6,20.6,8.6,31,12.5,20.8,7.6,40.9,17.1,43.6,47.3,3.1,31.9-7.2,58.8-29.6,76.3-26.3,20.1-55.5,22-84.3,9.2-22.2-9.9-31.5-37.2-26.9-72.6,10.1-1.4,20.2-3.7,30.8-3.7s8,6.6,8.2,10.5c1.6,15.4,7.2,25.7,20.6,27.8,16,2.9,31.3-3.9,37.4-17.1,5.5-11.5,3.1-20.4-7.4-24.7-12.1-4.9-24.3-8.6-36.6-13.8-31.9-13.2-41.7-36.4-32.7-76.5,0-1.4,0-1,0-1v-.4l.8.4Z"/>
  <path class="cls-2" d="M553.8,252.3c.6,1.6.6,1.4.8,1.4-13.2,0-26.3.6-39.3-.6-10.1-1-13.2,3.9-14.8,15.2-7.2,49.1-14.8,97.9-22.2,147-.6,3.7-1.4,7.2-2.5,13.2-10.7,0-21.6.4-32.3,0-10.1-.4-6.8-9.2-5.8-15.8,7.4-48.3,15.2-97,22.6-145.3.6-3.7.8-7.6,1.6-13.8-12.3,0-23.9-.6-35.6,0-11.3,1-13.4-4.9-11.3-16.7,6.6-33.1-1.4-27.3,27.6-27.6,33.7-.4,67.8.4,101.6-.4,11.9,0,16.2,3.7,12.9,18.1-1.9,8-2.5,16.2-3.1,25.7h-.2l.2-.4Z"/>
  <path class="cls-8" d="M153.8,451.1c-9.2,5.8-17.9,14.2-26.7,14.8-27.6,1.6-55.7,1-83.5.6-18.3,0-30.4-13.2-30-31.9.6-17.7,12.3-30,30-30.2h83.5c24.1,0,34.7,18.1,26.7,46.7h0Z"/>
  <path class="cls-8" d="M186.1,323c13.6,8,19.3,20.1,16.6,36.4-2.7,15.2-13.4,23.4-29,23.4h-83.5c-18.7,0-30.2-12.5-30-31.5.2-18.5,11.5-30.6,29.4-30.6,31.9,0,63.7,1,96.6,1.9v.4h0Z"/>
  <path class="cls-8" d="M221.4,300.6h-86.3c-17.5,0-29.4-12.5-30-30.2-.2-18.5,12.1-31.5,30.2-31.5h84.9c16.7,0,28.2,12.1,28.8,29.6.8,17.1-9.5,29.6-28,32.1h.4Z"/>
  <path class="cls-10" d="M309.4,136.1h-82.4c-18.1,0-29.4-11.9-29.6-30.2,0-19.1,11.5-31.5,30.2-31.5h82.4c19.3,0,30.8,11.9,31,30.6.2,18.7-10.7,30.2-31.3,31.2h-.2Z"/>
  <path class="cls-5" d="M227.8,218.5c-15.6,0-29.6.4-44,0-15.4-.4-26.7-13.8-26.9-30.2,0-16.7,10.7-31,26.3-31.2,28.8-.6,57.6-.6,86.3,0,15.2.4,26.1,15.2,25.5,32.1-.6,16.2-11.5,29-26.1,29.6-13.2.6-26.3,0-41.1,0v-.4Z"/>
  <path class="cls-11" d="M918.3,388.4c-6.2-1.4-11.5-1.6-16.9-1.9-1.4-15.2,6.2-18.1,33.5-12.1-3.5,14.8.8,32.9-16,41.5-19.3,10.1-39.5,8.6-49.7-5.6s-8.6-41.1,3.9-61.1c11.3-18.1,34.9-27.6,50-17.7,5.8,3.9,9.5,13.4,13.2,21,.6,1-4.9,6.2-8.2,9.9-10.9-20.6-21.2-24.9-34.7-16.2-13.2,8.6-22.6,36.4-14.6,49.7,3.9,6.6,13.4,10.9,20.6,10.9s19.3-1.4,18.3-18.1h.6l-.2-.2Z"/>
  <path class="cls-3" d="M989.7,328.9c10.9.4,20.8,1.4,24.1,15.4,3.1,13.4-2.7,24.9-18.3,36.2,4.7,12.1,9.3,24.3,14.6,37.4-9.9,5.6-16,3.9-19.5-8.2-1.9-6.2-3.5-13.4-7.2-17.3-4.5-4.9-10.9-8.6-16.7-9.2-2.1,0-5.8,8.6-7.6,13.8-1.6,4.3-.8,10.1-2.7,14.2-2.1,4.7-6.2,8-9.5,11.5-1.6-1.4-3.1-2.7-4.7-3.7,4.7-28.2,9.2-56.3,14-84.5.6-2.7,5.3-5.3,8.2-5.6,8.2-.6,16.6,0,25.9,0M964.4,358.9c.6,2.9,1.2,8.6,1.2,8.6,10.1-.6,20.6-1.4,30.4-3.9,1.9-.6,1.9-10.5,2.7-16.4-8.8-1.4-17.5-3.7-26.3-3.3-2.7,0-4.9,8.2-8,15.2h0v-.2Z"/>
  <path class="cls-15" d="M1031.2,413.8c-14.2-19.7-10.7-39.7-1.9-58.8,8.8-19.5,23.6-30.2,42.1-26.3,8.6,1.9,18.3,10.5,23,19.5,8.6,16.7,1.2,45.8-12.9,61.1-14,15.4-32.1,17.3-50,4.7M1037.2,371.3c-3.9,20.6-.8,31.2,10.1,35.8,11.5,4.9,24.9-2.9,31.5-18.5,8.2-19.5,6-39.1-5.5-45-13.4-6.8-27.6,2.9-36.2,27.3v.4h0Z"/>
  <path class="cls-12" d="M1173.5,352.6c-2.5,14.2-4.1,27.3-7.2,39.7-6,24.3-27.5,37.4-46.7,27.3-5.8-2.9-12.9-13.4-12.7-20.1,1.2-21.6,4.7-43.4,8.6-64.8.6-3.3,6.8-4.9,10.5-7.2,1.2,1.4,2.1,2.3,3.1,3.7-2.7,17.1-5.8,33.9-8,51-1.4,9.5-4.5,20.4,7.2,24.7,10.7,3.9,22-2.3,24.9-15.4,3.9-16.7,6.2-34.3,9.2-51.2,1.4-9.5,4.9-13.8,14.6-8.6-.8,6.2-1.9,13.2-3.1,21.4v-.4l-.4-.2Z"/>
  <path class="cls-3" d="M1190.1,344.6c.8-11.9,4.5-17.1,14-15.8,6.2,1,12.7,0,19.3.4,12.3,0,23.4,2.9,25.9,20.1,1.9,13.2-8.8,30.2-21.2,34.3-4.7,1.6-9.9,1.6-14.8,1.9h-14.2c-7.2,23.4-13.8,34.7-20.2,33.9,3.9-24.7,8-49.1,12.1-74.6M1203.5,345.4c-1.4,8.2-2.7,16.4-4.5,26.9,9.9-1,18.1,0,24.9-3.3,4.7-2.3,7.2-10.9,10.5-16.4-4.1-2.9-8.2-7.6-12.7-9-5.3-1.4-10.9,0-18.1,1.9v-.4l-.2.2Z"/>
  <path class="cls-9" d="M964.8,357.5c2.7-5.6,5.3-13.8,7.6-13.8,8.8-.4,17.5,1.9,26.3,3.3-.8,5.6-.8,15.8-2.7,16.4-9.9,2.9-20.2,3.3-30.4,3.9,0,0-.8-5.6-1.2-9.9h.2l.2.2Z"/>
  <path class="cls-6" d="M1037.4,370c8.2-23.4,22.6-33.1,36-26.3,11.3,5.8,13.6,25.7,5.5,45-6.6,15.2-20.2,23.4-31.5,18.5-10.9-4.7-14-15.2-9.9-37.2h0Z"/>
  <path class="cls-1" d="M1204.7,344.6c6.2-1,12.1-2.3,17.3-1,4.7,1.4,8.6,5.8,12.7,9-3.3,5.8-5.8,14.4-10.5,16.4-6.8,3.3-15.2,2.3-24.9,3.3,1.6-10.5,3.1-18.7,5.5-27.6Z"/>
</svg>